<svg width="60" height="52" viewBox="0 0 60 52" fill="none" xmlns="http://www.w3.org/2000/svg">
<path d="M40 52H20C14.5 52 10 48.1 10 43.3333V28.1667C10 23.4 14.5 19.5 20 19.5H40C45.5 19.5 50 23.4 50 28.1667V43.3333C50 48.1 45.5 52 40 52ZM20 23.8333C17.25 23.8333 15 25.7833 15 28.1667V43.3333C15 45.7167 17.25 47.6667 20 47.6667H40C42.75 47.6667 45 45.7167 45 43.3333V28.1667C45 25.7833 42.75 23.8333 40 23.8333H20Z" fill="#333333"/>
<path d="M42.5 23.8333H17.5C16 23.8333 15 22.9667 15 21.6667V13C15 5.85 21.75 0 30 0C38.5 0 45 5.85 45 13V21.6667C45 22.9667 44 23.8333 42.5 23.8333ZM20 19.5H40V13C40 8.23334 35.5 4.33333 30 4.33333C24.5 4.33333 20 8.23334 20 13V19.5Z" fill="#333333"/>
<path d="M30 36.8333C32.7614 36.8333 35 34.8932 35 32.5C35 30.1068 32.7614 28.1667 30 28.1667C27.2386 28.1667 25 30.1068 25 32.5C25 34.8932 27.2386 36.8333 30 36.8333Z" fill="black"/>
<path d="M30 43.3333C28.5 43.3333 27.5 42.4667 27.5 41.1667V34.6667C27.5 33.3667 28.5 32.5 30 32.5C31.5 32.5 32.5 33.3667 32.5 34.6667V41.1667C32.5 42.4667 31.5 43.3333 30 43.3333Z" fill="#333333"/>
</svg>
